<svg width="512" height="512" viewBox="0 0 512 512" fill="none" xmlns="http://www.w3.org/2000/svg">
<!-- Maskable icon with safe zone: symbol scaled down to 70% and centered -->
<rect width="512" height="512" fill="#21DBA4"/>
<g transform="translate(76.8, 76.8) scale(0.7)">
  <rect width="284.291" height="51.6892" rx="2" transform="matrix(-1 0 0 1 398.159 223.641)" fill="white"/>
  <rect width="169.165" height="51.6892" rx="2" transform="matrix(4.37114e-08 1 1 -4.37114e-08 231.345 106.166)" fill="white"/>
  <rect width="148.011" height="51.6892" rx="2" transform="matrix(-0.707107 -0.707107 -0.707107 0.707107 273.636 232.282)" fill="white"/>
  <rect width="148.024" height="51.6121" rx="2" transform="matrix(-0.707107 0.707107 0.707107 0.707107 346.689 127.641)" fill="white"/>
  <path d="M221.146 337.39C221.146 321.842 208.672 309.239 193.286 309.239C177.901 309.239 165.429 321.843 165.428 337.39C165.428 352.938 177.901 365.542 193.286 365.543V406L191.535 405.978C154.847 405.039 125.392 374.69 125.392 337.39C125.393 299.499 155.79 268.782 193.286 268.781C230.783 268.781 261.182 299.498 261.182 337.39L261.16 339.162C260.23 376.235 230.198 406 193.286 406V365.543C208.672 365.543 221.146 352.938 221.146 337.39Z" fill="white"/>
  <path d="M345.922 337.39C345.921 321.842 333.579 309.239 318.355 309.239C303.132 309.239 290.791 321.843 290.791 337.39C290.791 352.938 303.132 365.542 318.355 365.543V406L316.622 405.978C280.321 405.039 251.176 374.69 251.176 337.39C251.176 299.499 281.253 268.782 318.355 268.781C355.458 268.781 385.536 299.498 385.536 337.39L385.515 339.162C384.595 376.235 354.878 406 318.355 406V365.543C333.579 365.543 345.922 352.938 345.922 337.39Z" fill="white"/>
</g>
</svg>
