<svg width="512" height="512" viewBox="0 0 512 512" fill="none" xmlns="http://www.w3.org/2000/svg">
<rect width="512" height="512" rx="160" fill="#21DBA4"/>
<path d="M320.774 268.425C360.404 268.425 392.53 300.551 392.53 340.181L392.508 342.033C391.525 380.807 359.784 411.937 320.774 411.938L318.923 411.914C298.522 411.397 280.237 402.365 267.489 388.239C261.778 381.911 249.446 381.911 243.735 388.239C230.603 402.791 211.595 411.938 190.45 411.938L188.6 411.914C149.826 410.932 118.696 379.191 118.695 340.181C118.696 300.552 150.821 268.425 190.45 268.425C211.595 268.425 230.603 277.571 243.735 292.123C249.446 298.451 261.778 298.451 267.489 292.123C280.621 277.571 299.63 268.425 320.774 268.425ZM190.45 310.738C174.19 310.739 161.009 323.92 161.009 340.181C161.009 356.441 174.19 369.624 190.45 369.624C206.711 369.624 219.894 356.441 219.895 340.181C219.894 323.92 206.711 310.738 190.45 310.738ZM320.774 310.738C304.514 310.739 291.332 323.92 291.332 340.181C291.332 356.441 304.514 369.624 320.774 369.624C337.035 369.624 350.218 356.441 350.218 340.181C350.217 323.92 337.035 310.738 320.774 310.738ZM273.798 161.604C273.798 170.007 283.535 174.663 290.076 169.388L332.5 135.17C336.164 132.215 341.393 132.215 345.056 135.17L359.048 146.455C364.01 150.457 364.01 158.019 359.048 162.022L322.62 191.403C315.278 197.325 319.465 209.187 328.898 209.187H406.578C412.101 209.187 416.578 213.664 416.578 219.187V241.5C416.578 247.023 412.101 251.5 406.578 251.5H105C99.4772 251.5 95 247.023 95 241.5V219.187C95 213.664 99.4772 209.187 105 209.187H175.421C184.854 209.187 189.041 197.325 181.699 191.403L145.272 162.022C140.309 158.019 140.309 150.457 145.272 146.455L159.262 135.171C162.926 132.216 168.154 132.216 171.818 135.171L216.358 171.094C222.899 176.37 232.636 171.714 232.636 163.31V111C232.636 105.477 237.113 101 242.636 101H263.798C269.321 101 273.798 105.477 273.798 111V161.604Z" fill="white"/>
</svg>
